<svg width="24" height="24" viewBox="0 0 24 24" fill="none" xmlns="http://www.w3.org/2000/svg">
<path d="M12 21.5C10.1211 21.5 8.28435 20.9428 6.72209 19.899C5.15982 18.8551 3.94218 17.3714 3.22315 15.6355C2.50412 13.8996 2.31598 11.9895 2.68254 10.1466C3.0491 8.30383 3.95389 6.61109 5.28249 5.28249C6.61109 3.95389 8.30383 3.0491 10.1466 2.68254C11.9895 2.31598 13.8996 2.50412 15.6355 3.22315C17.3714 3.94218 18.8551 5.15982 19.899 6.72209C20.9428 8.28435 21.5 10.1211 21.5 12C21.4974 14.5187 20.4956 16.9336 18.7146 18.7146C16.9336 20.4956 14.5187 21.4974 12 21.5ZM12 3.5C10.3189 3.5 8.67548 3.99852 7.27766 4.93251C5.87984 5.8665 4.79037 7.19402 4.14703 8.74719C3.50368 10.3004 3.33535 12.0094 3.66333 13.6583C3.9913 15.3071 4.80085 16.8217 5.9896 18.0104C7.17834 19.1992 8.6929 20.0087 10.3417 20.3367C11.9906 20.6647 13.6996 20.4963 15.2528 19.853C16.806 19.2096 18.1335 18.1202 19.0675 16.7224C20.0015 15.3245 20.5 13.6811 20.5 12C20.4974 9.74648 19.601 7.58601 18.0075 5.99252C16.414 4.39903 14.2535 3.50265 12 3.5Z" fill="#414042"/>
<path d="M12 17.21C10.9696 17.21 9.9623 16.9045 9.10552 16.332C8.24874 15.7595 7.58096 14.9458 7.18663 13.9938C6.7923 13.0418 6.68912 11.9943 6.89015 10.9836C7.09118 9.97298 7.58738 9.04465 8.31601 8.31602C9.04465 7.58738 9.97298 7.09118 10.9836 6.89015C11.9943 6.68912 13.0418 6.7923 13.9938 7.18663C14.9458 7.58096 15.7595 8.24874 16.332 9.10552C16.9045 9.9623 17.21 10.9696 17.21 12C17.2074 13.381 16.6576 14.7047 15.6811 15.6811C14.7047 16.6576 13.381 17.2074 12 17.21ZM12 7.79004C11.1674 7.79004 10.3534 8.03695 9.66109 8.49955C8.96876 8.96216 8.42915 9.61967 8.11051 10.3889C7.79186 11.1582 7.70849 12.0047 7.87094 12.8214C8.03338 13.638 8.43434 14.3882 9.02312 14.977C9.6119 15.5657 10.3621 15.9667 11.1787 16.1291C11.9954 16.2916 12.8419 16.2082 13.6111 15.8896C14.3804 15.5709 15.0379 15.0313 15.5005 14.339C15.9631 13.6467 16.21 12.8327 16.21 12C16.2074 10.8843 15.763 9.815 14.974 9.02604C14.1851 8.23708 13.1158 7.79268 12 7.79004Z" fill="#414042"/>
<path d="M21 12.5H3C2.86739 12.5 2.74021 12.4473 2.64645 12.3536C2.55268 12.2598 2.5 12.1326 2.5 12C2.5 11.8674 2.55268 11.7402 2.64645 11.6464C2.74021 11.5527 2.86739 11.5 3 11.5H21C21.1326 11.5 21.2598 11.5527 21.3536 11.6464C21.4473 11.7402 21.5 11.8674 21.5 12C21.5 12.1326 21.4473 12.2598 21.3536 12.3536C21.2598 12.4473 21.1326 12.5 21 12.5Z" fill="#414042"/>
<path d="M12 21.5C11.8674 21.5 11.7402 21.4473 11.6464 21.3536C11.5527 21.2598 11.5 21.1326 11.5 21V3C11.5 2.86739 11.5527 2.74021 11.6464 2.64645C11.7402 2.55268 11.8674 2.5 12 2.5C12.1326 2.5 12.2598 2.55268 12.3536 2.64645C12.4473 2.74021 12.5 2.86739 12.5 3V21C12.5 21.1326 12.4473 21.2598 12.3536 21.3536C12.2598 21.4473 12.1326 21.5 12 21.5Z" fill="#414042"/>
</svg>
