<svg width="24" height="24" viewBox="0 0 24 24" fill="none" xmlns="http://www.w3.org/2000/svg">
<path d="M11.9999 22.3099C9.96082 22.3099 7.96749 21.7053 6.27202 20.5724C4.57655 19.4395 3.25509 17.8293 2.47475 15.9454C1.69441 14.0615 1.49024 11.9885 1.88805 9.98856C2.28586 7.98862 3.2678 6.15155 4.70967 4.70967C6.15155 3.2678 7.98862 2.28586 9.98856 1.88805C11.9885 1.49024 14.0615 1.69441 15.9454 2.47475C17.8293 3.25509 19.4395 4.57655 20.5724 6.27202C21.7053 7.96749 22.3099 9.96082 22.3099 11.9999C22.3073 14.7335 21.2202 17.3544 19.2873 19.2873C17.3544 21.2202 14.7335 22.3073 11.9999 22.3099ZM11.9999 2.68995C10.1586 2.68995 8.35861 3.23597 6.82759 4.25896C5.29657 5.28196 4.10328 6.73598 3.39863 8.43716C2.69398 10.1383 2.50961 12.0103 2.86884 13.8162C3.22806 15.6222 4.11475 17.2811 5.41678 18.5831C6.71881 19.8851 8.37769 20.7718 10.1837 21.1311C11.9896 21.4903 13.8615 21.3059 15.5627 20.6013C17.2639 19.8966 18.7179 18.7033 19.7409 17.1723C20.7639 15.6413 21.3099 13.8413 21.3099 11.9999C21.3047 9.5324 20.3221 7.16744 18.5773 5.42262C16.8325 3.6778 14.4675 2.69523 11.9999 2.68995Z" fill="#414042"/>
<path d="M8.10986 16C7.56597 16 7.03428 15.8387 6.58205 15.5365C6.12981 15.2344 5.77734 14.8049 5.5692 14.3024C5.36105 13.7999 5.3066 13.247 5.4127 12.7135C5.51881 12.1801 5.78073 11.6901 6.16532 11.3055C6.54992 10.9209 7.03992 10.659 7.57337 10.5528C8.10681 10.4467 8.65975 10.5012 9.16224 10.7093C9.66474 10.9175 10.0942 11.2699 10.3964 11.7222C10.6986 12.1744 10.8599 12.7061 10.8599 13.25C10.8599 13.6111 10.7887 13.9687 10.6505 14.3024C10.5123 14.636 10.3098 14.9392 10.0544 15.1945C9.79905 15.4499 9.49589 15.6525 9.16224 15.7907C8.8286 15.9289 8.471 16 8.10986 16ZM8.10986 11.5C7.76165 11.5001 7.42139 11.6042 7.13262 11.7988C6.84385 11.9934 6.6197 12.2697 6.48885 12.5924C6.35799 12.9151 6.32638 13.2695 6.39805 13.6102C6.46973 13.951 6.64144 14.2626 6.8912 14.5052C7.14097 14.7479 7.45745 14.9105 7.80014 14.9722C8.14283 15.034 8.49617 14.9921 8.81493 14.852C9.1337 14.7118 9.40341 14.4798 9.58955 14.1855C9.7757 13.8912 9.86981 13.5481 9.85986 13.2C9.85724 12.7367 9.67202 12.2931 9.3444 11.9655C9.01678 11.6378 8.57318 11.4526 8.10986 11.45V11.5Z" fill="#414042"/>
<path d="M15.8899 16C15.346 16 14.8143 15.8387 14.3621 15.5365C13.9098 15.2344 13.5574 14.8049 13.3492 14.3024C13.1411 13.7999 13.0866 13.247 13.1927 12.7135C13.2988 12.1801 13.5608 11.6901 13.9454 11.3055C14.3299 10.9209 14.8199 10.659 15.3534 10.5528C15.8868 10.4467 16.4398 10.5012 16.9423 10.7093C17.4448 10.9175 17.8743 11.2699 18.1764 11.7222C18.4786 12.1744 18.6399 12.7061 18.6399 13.25C18.6399 13.9793 18.3502 14.6788 17.8344 15.1945C17.3187 15.7103 16.6192 16 15.8899 16ZM15.8899 11.5C15.5438 11.5 15.2054 11.6026 14.9176 11.7949C14.6299 11.9872 14.4056 12.2605 14.2731 12.5803C14.1407 12.9001 14.106 13.2519 14.1735 13.5914C14.241 13.9309 14.4077 14.2427 14.6525 14.4874C14.8972 14.7322 15.209 14.8989 15.5485 14.9664C15.888 15.0339 16.2398 14.9992 16.5596 14.8668C16.8794 14.7343 17.1527 14.51 17.345 14.2222C17.5373 13.9345 17.6399 13.5961 17.6399 13.25C17.6466 13.016 17.6063 12.7831 17.5213 12.5649C17.4364 12.3468 17.3085 12.148 17.1454 11.9801C16.9822 11.8123 16.787 11.6789 16.5713 11.5878C16.3557 11.4968 16.124 11.4499 15.8899 11.45V11.5Z" fill="#414042"/>
<path d="M2.41982 10.3599C2.30455 10.3599 2.19282 10.3201 2.10353 10.2473C2.01424 10.1744 1.95287 10.0729 1.92982 9.95993C1.90594 9.83024 1.93322 9.69635 2.00594 9.58634C2.07865 9.47634 2.19115 9.39877 2.31982 9.36993C2.42982 9.34993 13.2498 6.99993 16.1598 2.99992C16.1985 2.94663 16.2473 2.90149 16.3034 2.86709C16.3595 2.8327 16.4219 2.80974 16.487 2.79952C16.552 2.7893 16.6184 2.79202 16.6824 2.80754C16.7464 2.82305 16.8067 2.85105 16.8598 2.88992C16.9653 2.9696 17.0357 3.08712 17.0562 3.2177C17.0768 3.34829 17.0458 3.48174 16.9698 3.58992C13.8298 7.89993 2.99982 10.2499 2.52982 10.3499L2.41982 10.3599Z" fill="#414042"/>
<path d="M18.9999 8.69991C16.5225 8.61728 14.0817 8.07825 11.7999 7.10991C11.6779 7.05687 11.582 6.95753 11.5332 6.83376C11.4844 6.70999 11.4868 6.57191 11.5399 6.44991C11.5929 6.32791 11.6923 6.23198 11.816 6.18322C11.9398 6.13446 12.0779 6.13687 12.1999 6.18991C12.2499 6.18991 16.9399 8.27991 20.8799 7.53991C21.011 7.51633 21.1461 7.54497 21.2564 7.61972C21.3666 7.69447 21.4433 7.80939 21.4699 7.93991C21.4933 8.06981 21.4643 8.20368 21.3894 8.31233C21.3145 8.42098 21.1996 8.4956 21.0699 8.51991C20.3873 8.64661 19.6941 8.70689 18.9999 8.69991Z" fill="#414042"/>
<path d="M13.6399 13.6999H10.3599C10.2273 13.6999 10.1001 13.6473 10.0063 13.5535C9.91254 13.4597 9.85986 13.3326 9.85986 13.2C9.86242 13.0681 9.91592 12.9424 10.0091 12.8492C10.1024 12.756 10.2281 12.7025 10.3599 12.7H13.6399C13.7717 12.7025 13.8974 12.756 13.9906 12.8492C14.0838 12.9424 14.1373 13.0681 14.1399 13.2C14.1399 13.3326 14.0872 13.4597 13.9934 13.5535C13.8996 13.6473 13.7725 13.6999 13.6399 13.6999Z" fill="#414042"/>
<path d="M5.86002 13.6999H2.27002C2.13741 13.6999 2.01023 13.6473 1.91647 13.5535C1.8227 13.4597 1.77002 13.3326 1.77002 13.2C1.77258 13.0681 1.82608 12.9424 1.9193 12.8492C2.01252 12.756 2.13821 12.7025 2.27002 12.7H5.86002C5.99263 12.7 6.1198 12.7526 6.21357 12.8464C6.30734 12.9402 6.36002 13.0673 6.36002 13.2C6.36002 13.3326 6.30734 13.4597 6.21357 13.5535C6.1198 13.6473 5.99263 13.6999 5.86002 13.6999Z" fill="#414042"/>
<path d="M21.7399 13.6999H18.1399C18.0073 13.6999 17.8801 13.6473 17.7863 13.5535C17.6926 13.4597 17.6399 13.3326 17.6399 13.2C17.6399 13.0673 17.6926 12.9402 17.7863 12.8464C17.8801 12.7526 18.0073 12.7 18.1399 12.7H21.7399C21.8725 12.7 21.9997 12.7526 22.0934 12.8464C22.1872 12.9402 22.2399 13.0673 22.2399 13.2C22.2399 13.3326 22.1872 13.4597 22.0934 13.5535C21.9997 13.6473 21.8725 13.6999 21.7399 13.6999Z" fill="#414042"/>
</svg>
