<svg width="24" height="24" viewBox="0 0 24 24" fill="none" xmlns="http://www.w3.org/2000/svg">
<path d="M11.9999 15.0701C11.3927 15.0701 10.7992 14.89 10.2943 14.5527C9.78947 14.2153 9.39598 13.7359 9.16362 13.1749C8.93126 12.6139 8.87047 11.9966 8.98892 11.4011C9.10738 10.8056 9.39977 10.2586 9.82912 9.82924C10.2585 9.39989 10.8055 9.1075 11.401 8.98904C11.9965 8.87059 12.6138 8.93138 13.1748 9.16375C13.7357 9.39611 14.2152 9.7896 14.5525 10.2945C14.8899 10.7993 15.0699 11.3929 15.0699 12.0001C15.0673 12.8135 14.743 13.5928 14.1678 14.168C13.5927 14.7431 12.8133 15.0674 11.9999 15.0701ZM11.9999 9.93006C11.5905 9.93006 11.1903 10.0515 10.8499 10.2789C10.5095 10.5064 10.2442 10.8297 10.0875 11.2079C9.93083 11.5861 9.88984 12.0024 9.96971 12.4039C10.0496 12.8054 10.2467 13.1743 10.5362 13.4638C10.8257 13.7533 11.1946 13.9504 11.5961 14.0303C11.9976 14.1102 12.4138 14.0692 12.7921 13.9125C13.1703 13.7558 13.4936 13.4905 13.7211 13.1501C13.9485 12.8097 14.0699 12.4095 14.0699 12.0001C14.0699 11.4511 13.8518 10.9245 13.4636 10.5363C13.0754 10.1481 12.5489 9.93006 11.9999 9.93006Z" fill="#414042"/>
<path d="M12 18.5001C10.7144 18.5001 9.45772 18.1189 8.3888 17.4047C7.31988 16.6904 6.48676 15.6753 5.99479 14.4876C5.50282 13.2998 5.37409 11.9929 5.6249 10.732C5.8757 9.47116 6.49477 8.31297 7.40381 7.40393C8.31285 6.49489 9.47104 5.87582 10.7319 5.62502C11.9928 5.37422 13.2997 5.50294 14.4874 5.99491C15.6752 6.48688 16.6903 7.32 17.4046 8.38892C18.1188 9.45784 18.5 10.7145 18.5 12.0001C18.5 13.724 17.8152 15.3773 16.5962 16.5963C15.3772 17.8153 13.7239 18.5001 12 18.5001ZM12 6.50012C10.9122 6.50012 9.84884 6.82269 8.94437 7.42704C8.0399 8.03139 7.33495 8.89037 6.91867 9.89536C6.50238 10.9004 6.39347 12.0062 6.60568 13.0731C6.8179 14.14 7.34173 15.12 8.11092 15.8892C8.8801 16.6584 9.86011 17.1822 10.927 17.3944C11.9939 17.6067 13.0998 17.4977 14.1048 17.0815C15.1098 16.6652 15.9687 15.9602 16.5731 15.0558C17.1774 14.1513 17.5 13.0879 17.5 12.0001C17.4974 10.5422 16.917 9.14483 15.8862 8.11396C14.8553 7.08308 13.4579 6.50277 12 6.50012Z" fill="#414042"/>
<path d="M12.0001 21.9301C10.0361 21.9301 8.11624 21.3477 6.48326 20.2566C4.85028 19.1654 3.57753 17.6146 2.82595 15.8001C2.07437 13.9856 1.87772 11.9891 2.26088 10.0628C2.64403 8.13659 3.58977 6.36724 4.9785 4.9785C6.36724 3.58977 8.13659 2.64403 10.0628 2.26088C11.9891 1.87772 13.9856 2.07437 15.8001 2.82595C17.6146 3.57753 19.1654 4.85028 20.2566 6.48326C21.3477 8.11624 21.9301 10.0361 21.9301 12.0001C21.9274 14.6329 20.8804 17.1571 19.0187 19.0187C17.1571 20.8804 14.6329 21.9274 12.0001 21.9301ZM12.0001 3.07007C10.2339 3.07007 8.50736 3.59381 7.03883 4.57505C5.5703 5.55629 4.42572 6.95097 3.74983 8.58271C3.07394 10.2145 2.89709 12.01 3.24166 13.7422C3.58623 15.4745 4.43673 17.0657 5.68561 18.3145C6.93449 19.5634 8.52567 20.4139 10.2579 20.7585C11.9902 21.1031 13.7857 20.9262 15.4174 20.2503C17.0492 19.5744 18.4439 18.4298 19.4251 16.9613C20.4063 15.4928 20.9301 13.7663 20.9301 12.0001C20.9301 10.8274 20.6991 9.66615 20.2503 8.58271C19.8015 7.49927 19.1438 6.51484 18.3145 5.68561C17.4853 4.85638 16.5009 4.1986 15.4174 3.74983C14.334 3.30105 13.1728 3.07007 12.0001 3.07007Z" fill="#414042"/>
</svg>
