<svg width="100" height="100" viewBox="0 0 100 100" fill="none" xmlns="http://www.w3.org/2000/svg">
<path d="M54.5001 84.3334C48.8308 84.3385 43.2433 82.9809 38.2084 80.375C37.9649 80.2492 37.7486 80.0766 37.5718 79.8672C37.395 79.6577 37.2612 79.4155 37.178 79.1543C37.0948 78.8932 37.0639 78.6182 37.0869 78.3451C37.11 78.0719 37.1867 77.806 37.3125 77.5625C37.4384 77.3191 37.611 77.1027 37.8204 76.9259C38.0299 76.7491 38.2721 76.6153 38.5333 76.5321C38.7944 76.449 39.0694 76.418 39.3425 76.4411C39.6157 76.4642 39.8816 76.5409 40.125 76.6667C46.8688 80.0975 54.6262 80.9722 61.9646 79.1293C69.303 77.2864 75.7267 72.8503 80.0493 66.6403C84.3719 60.4303 86.3014 52.866 85.4815 45.3443C84.6616 37.8225 81.1476 30.8516 75.5886 25.7187C70.0296 20.5859 62.801 17.638 55.2379 17.4194C47.6748 17.2008 40.288 19.7263 34.4418 24.5295C28.5956 29.3326 24.6849 36.089 23.4319 43.5508C22.179 51.0126 23.6684 58.6758 27.625 65.1251C27.9042 65.6023 27.9863 66.1694 27.854 66.7062C27.7218 67.243 27.3856 67.7071 26.9167 68C26.6818 68.1437 26.4208 68.2394 26.1487 68.2815C25.8766 68.3236 25.5988 68.3114 25.3315 68.2455C25.0641 68.1797 24.8125 68.0615 24.5911 67.8977C24.3697 67.734 24.183 67.528 24.0417 67.2917C19.4692 59.9695 17.7285 51.2294 19.1467 42.7141C20.5649 34.1987 25.0443 26.4945 31.7431 21.0495C38.4419 15.6045 46.8988 12.7936 55.5243 13.1451C64.1497 13.4966 72.3499 16.9863 78.5834 22.9584C83.3973 27.4203 86.8766 33.1321 88.633 39.4564C90.3893 45.7808 90.3537 52.4688 88.5299 58.774C86.7062 65.0793 83.1662 70.7537 78.3049 75.164C73.4437 79.5742 67.4525 82.5469 61.0001 83.75C58.8566 84.1489 56.6803 84.3443 54.5001 84.3334V84.3334Z" fill="#95E1D3"/>
<path d="M22.1667 86.5001C21.359 86.4849 20.5675 86.2708 19.8622 85.8769C19.1569 85.4831 18.5595 84.9214 18.1228 84.2418C17.6862 83.5621 17.4238 82.7853 17.3587 81.9801C17.2937 81.1749 17.4281 80.366 17.75 79.6251L24.0833 65.3751C24.3191 64.8701 24.7438 64.4779 25.266 64.283C25.7882 64.0882 26.366 64.1063 26.875 64.3334C27.3771 64.5608 27.7686 64.9779 27.9638 65.4933C28.1591 66.0087 28.1421 66.5805 27.9167 67.0834L21.5417 81.3334C21.4605 81.4416 21.4167 81.5732 21.4167 81.7084C21.4167 81.8437 21.4605 81.9753 21.5417 82.0834C21.6327 82.1876 21.7522 82.2628 21.8855 82.2999C22.0188 82.3369 22.16 82.3341 22.2917 82.2918L38.3333 76.5834C38.59 76.4847 38.8641 76.4388 39.139 76.4486C39.4138 76.4583 39.6839 76.5236 39.933 76.6403C40.182 76.7571 40.4049 76.9229 40.5883 77.1279C40.7716 77.333 40.9117 77.5729 41 77.8334C41.1876 78.3528 41.1614 78.9255 40.927 79.4255C40.6926 79.9256 40.2692 80.3121 39.75 80.5001L23.8333 86.2084C23.3002 86.4064 22.7353 86.5053 22.1667 86.5001Z" fill="#95E1D3"/>
</svg>
