<svg width="24" height="24" viewBox="0 0 24 24" fill="none" xmlns="http://www.w3.org/2000/svg">
<path d="M12 22.41C11.6383 22.4107 11.2808 22.3323 10.9526 22.1803C10.6244 22.0283 10.3334 21.8063 10.1 21.53L9.22004 20.53C9.07065 20.3544 8.88302 20.2153 8.67154 20.1234C8.46007 20.0315 8.23036 19.9893 8.00004 20L6.66004 20.12C6.29871 20.1501 5.93514 20.1013 5.59456 19.9769C5.25397 19.8526 4.94451 19.6556 4.68765 19.3997C4.43079 19.1438 4.23266 18.835 4.10702 18.4949C3.98138 18.1548 3.93123 17.7914 3.96004 17.43L4.00004 16.06C4.01866 15.8229 3.98026 15.5848 3.88805 15.3656C3.79585 15.1464 3.65252 14.9525 3.47004 14.8L2.47004 13.93C2.19236 13.6962 1.96913 13.4046 1.81599 13.0756C1.66284 12.7465 1.5835 12.3879 1.5835 12.025C1.5835 11.662 1.66284 11.3034 1.81599 10.9744C1.96913 10.6453 2.19236 10.3537 2.47004 10.12L3.47004 9.23997C3.64843 9.08849 3.78917 8.89762 3.88115 8.68242C3.97313 8.46723 4.01383 8.2336 4.00004 7.99997L3.90004 6.62997C3.86989 6.26864 3.91869 5.90507 4.04307 5.56449C4.16745 5.2239 4.36442 4.91444 4.62034 4.65758C4.87625 4.40072 5.18497 4.2026 5.52509 4.07695C5.86522 3.95131 6.2286 3.90116 6.59004 3.92997L7.94004 3.99997C8.17382 4.02342 8.40983 3.99126 8.62881 3.9061C8.84779 3.82094 9.04353 3.6852 9.20004 3.50997L10.07 2.50997C10.3032 2.22292 10.5974 1.99141 10.9313 1.83228C11.2651 1.67314 11.6302 1.59037 12 1.58997C12.3618 1.58922 12.7193 1.6676 13.0475 1.81962C13.3757 1.97163 13.6667 2.19361 13.9 2.46997L14.78 3.46997C14.9304 3.64444 15.1182 3.78272 15.3294 3.87449C15.5407 3.96626 15.7699 4.00915 16 3.99997L17.34 3.87997C17.7014 3.84982 18.0649 3.89862 18.4055 4.023C18.7461 4.14738 19.0556 4.34436 19.3124 4.60027C19.5693 4.85618 19.7674 5.1649 19.8931 5.50503C20.0187 5.84515 20.0689 6.20853 20.04 6.56997L20 7.93997C19.9814 8.17705 20.0198 8.41513 20.112 8.63434C20.2042 8.85354 20.3476 9.04749 20.53 9.19997L21.53 10.07C21.8077 10.3037 22.031 10.5953 22.1841 10.9244C22.3372 11.2534 22.4166 11.612 22.4166 11.975C22.4166 12.3379 22.3372 12.6965 22.1841 13.0256C22.031 13.3546 21.8077 13.6462 21.53 13.88L20.53 14.76C20.3516 14.9115 20.2109 15.1023 20.1189 15.3175C20.0269 15.5327 19.9862 15.7663 20 16L20.12 17.35C20.1502 17.7113 20.1014 18.0749 19.977 18.4155C19.8526 18.756 19.6557 19.0655 19.3997 19.3224C19.1438 19.5792 18.8351 19.7773 18.495 19.903C18.1549 20.0286 17.7915 20.0788 17.43 20.05L16.06 20C15.8231 19.9822 15.5852 20.021 15.3662 20.1131C15.1471 20.2053 14.9531 20.3481 14.8 20.53L13.93 21.53C13.6972 21.8076 13.4065 22.0311 13.0784 22.1849C12.7502 22.3386 12.3924 22.4188 12.03 22.42L12 22.41ZM8.10004 19C8.46175 18.9992 8.81925 19.0776 9.14747 19.2296C9.47569 19.3816 9.76668 19.6036 10 19.88L10.88 20.88C11.019 21.0471 11.1934 21.1813 11.3905 21.273C11.5877 21.3646 11.8027 21.4114 12.02 21.41C12.2383 21.4082 12.4538 21.36 12.652 21.2686C12.8503 21.1773 13.0269 21.0448 13.17 20.88L14.04 19.88C14.2922 19.5736 14.6152 19.3333 14.9811 19.18C15.347 19.0267 15.7448 18.9649 16.14 19L17.49 19.1C17.7063 19.1199 17.9242 19.0917 18.1283 19.0173C18.3323 18.943 18.5173 18.8244 18.67 18.67C18.8235 18.5145 18.9415 18.3276 19.0157 18.1222C19.0899 17.9167 19.1187 17.6976 19.1 17.48L19 16.11C18.9635 15.7151 19.0225 15.3172 19.1722 14.9499C19.3219 14.5826 19.5578 14.2568 19.86 14L20.86 13.12C21.0283 12.9851 21.1647 12.8148 21.2598 12.6212C21.3548 12.4277 21.4061 12.2156 21.41 12C21.4083 11.7817 21.3601 11.5662 21.2687 11.368C21.1773 11.1697 21.0448 10.9931 20.88 10.85L19.88 9.97997C19.5714 9.72533 19.3298 9.39897 19.1764 9.02941C19.023 8.65985 18.9625 8.25834 19 7.85997L19.1 6.50997C19.1193 6.29379 19.0907 6.07602 19.0164 5.8721C18.9421 5.66818 18.8239 5.4831 18.67 5.32997C18.515 5.17593 18.3282 5.05763 18.1226 4.98336C17.917 4.90908 17.6977 4.88062 17.48 4.89997L16.11 4.99997C15.7149 5.03913 15.3162 4.98126 14.9485 4.83139C14.5808 4.68152 14.2552 4.44418 14 4.13997L13.12 3.13997C12.9851 2.97176 12.8148 2.83529 12.6213 2.74024C12.4277 2.64519 12.2156 2.59389 12 2.58997C11.7817 2.59176 11.5663 2.63993 11.368 2.73131C11.1698 2.82268 10.9932 2.95516 10.85 3.11997L9.98004 4.11997C9.72483 4.42795 9.39838 4.66905 9.02897 4.82239C8.65956 4.97574 8.25833 5.03669 7.86004 4.99997L6.51004 4.89997C6.29386 4.88074 6.07609 4.90929 5.87217 4.9836C5.66825 5.05791 5.48317 5.17616 5.33004 5.32997C5.17247 5.48877 5.05215 5.6806 4.97778 5.89159C4.90342 6.10259 4.87686 6.32746 4.90004 6.54997L5.00004 7.88997C5.03662 8.28488 4.97757 8.6828 4.82788 9.05006C4.67818 9.41733 4.44226 9.74315 4.14004 9.99997L3.14004 10.88C2.97183 11.0149 2.83536 11.1852 2.74031 11.3787C2.64526 11.5723 2.59396 11.7844 2.59004 12C2.59182 12.2183 2.64 12.4337 2.73137 12.632C2.82275 12.8302 2.95523 13.0068 3.12004 13.15L4.12004 14.02C4.42869 14.2746 4.67027 14.601 4.82367 14.9705C4.97708 15.3401 5.03763 15.7416 5.00004 16.14L4.90004 17.49C4.88081 17.7062 4.90936 17.9239 4.98367 18.1278C5.05798 18.3318 5.17623 18.5168 5.33004 18.67C5.48509 18.824 5.67193 18.9423 5.87748 19.0166C6.08303 19.0909 6.30234 19.1193 6.52004 19.1L7.89004 19H8.10004Z" fill="#414042"/>
<path d="M12 15.5C11.0717 15.5 10.1815 15.1313 9.52513 14.4749C8.86875 13.8185 8.5 12.9283 8.5 12C8.5 11.0717 8.86875 10.1815 9.52513 9.52513C10.1815 8.86875 11.0717 8.5 12 8.5C12.9283 8.5 13.8185 8.86875 14.4749 9.52513C15.1313 10.1815 15.5 11.0717 15.5 12C15.5 12.9283 15.1313 13.8185 14.4749 14.4749C13.8185 15.1313 12.9283 15.5 12 15.5ZM12 9.5C11.337 9.5 10.7011 9.76339 10.2322 10.2322C9.76339 10.7011 9.5 11.337 9.5 12C9.5 12.663 9.76339 13.2989 10.2322 13.7678C10.7011 14.2366 11.337 14.5 12 14.5C12.663 14.5 13.2989 14.2366 13.7678 13.7678C14.2366 13.2989 14.5 12.663 14.5 12C14.5 11.337 14.2366 10.7011 13.7678 10.2322C13.2989 9.76339 12.663 9.5 12 9.5Z" fill="#414042"/>
</svg>
