<svg width="24" height="24" viewBox="0 0 24 24" fill="none" xmlns="http://www.w3.org/2000/svg">
<path d="M3.99997 20.5C3.89651 20.4996 3.79553 20.4682 3.70997 20.41C3.63662 20.3689 3.57509 20.3096 3.53131 20.2378C3.48752 20.166 3.46296 20.0841 3.45997 20V6.00004C3.45926 5.89847 3.4895 5.79909 3.54666 5.71513C3.60383 5.63117 3.68521 5.56661 3.77997 5.53004L8.88997 3.53004C9.00658 3.48966 9.13337 3.48966 9.24997 3.53004L14.1 5.43004L19.89 3.53004C19.9646 3.50165 20.0453 3.49317 20.1242 3.50545C20.2031 3.51772 20.2775 3.55032 20.34 3.60004C20.4033 3.64548 20.4546 3.70564 20.4894 3.77533C20.5243 3.84502 20.5416 3.92215 20.54 4.00004V18C20.5407 18.1044 20.5082 18.2062 20.447 18.2908C20.3858 18.3753 20.2993 18.4381 20.2 18.47L14.2 20.47C14.0901 20.5098 13.9698 20.5098 13.86 20.47L9.05997 18.58L4.13997 20.47C4.09475 20.4859 4.04772 20.496 3.99997 20.5ZM9.09997 17.5C9.16243 17.4852 9.22751 17.4852 9.28997 17.5L14 19.47L19.53 17.6V4.69004L14.23 6.43004C14.1201 6.46976 13.9998 6.46976 13.89 6.43004L9.05997 4.54004L4.45997 6.30004V19.3L8.88997 17.61C8.93887 17.5711 8.99782 17.5468 9.05997 17.54L9.09997 17.5Z" fill="#414042"/>
<path d="M9.06006 18.54C8.92745 18.54 8.80027 18.4873 8.7065 18.3936C8.61274 18.2998 8.56006 18.1726 8.56006 18.04V4C8.56006 3.86739 8.61274 3.74021 8.7065 3.64645C8.80027 3.55268 8.92745 3.5 9.06006 3.5C9.19267 3.5 9.31984 3.55268 9.41361 3.64645C9.50738 3.74021 9.56006 3.86739 9.56006 4V18C9.56559 18.0689 9.55676 18.1383 9.53412 18.2036C9.51149 18.269 9.47553 18.329 9.42854 18.3797C9.38155 18.4305 9.32454 18.4709 9.26111 18.4985C9.19769 18.5261 9.12923 18.5402 9.06006 18.54Z" fill="#414042"/>
<path d="M14.0898 20.5C13.9572 20.5 13.8301 20.4473 13.7363 20.3536C13.6425 20.2598 13.5898 20.1326 13.5898 20V6C13.5898 5.86739 13.6425 5.74021 13.7363 5.64645C13.8301 5.55268 13.9572 5.5 14.0898 5.5C14.2225 5.5 14.3496 5.55268 14.4434 5.64645C14.5372 5.74021 14.5898 5.86739 14.5898 6V20C14.5898 20.1326 14.5372 20.2598 14.4434 20.3536C14.3496 20.4473 14.2225 20.5 14.0898 20.5Z" fill="#414042"/>
</svg>
