<svg width="24" height="24" viewBox="0 0 24 24" fill="none" xmlns="http://www.w3.org/2000/svg">
<path d="M13.0801 20.2399C11.7194 20.2412 10.3784 19.9153 9.17005 19.2899C9.11161 19.2597 9.0597 19.2183 9.01726 19.1681C8.97483 19.1178 8.94272 19.0597 8.92275 18.997C8.90279 18.9343 8.89537 18.8683 8.90091 18.8027C8.90645 18.7372 8.92485 18.6734 8.95505 18.6149C8.98525 18.5565 9.02667 18.5046 9.07694 18.4622C9.12721 18.4197 9.18534 18.3876 9.24802 18.3676C9.3107 18.3477 9.3767 18.3403 9.44225 18.3458C9.5078 18.3513 9.57161 18.3697 9.63005 18.3999C11.2485 19.2233 13.1103 19.4333 14.8715 18.991C16.6328 18.5487 18.1744 17.484 19.2119 15.9936C20.2493 14.5032 20.7124 12.6878 20.5156 10.8826C20.3188 9.07734 19.4755 7.40431 18.1413 6.17243C16.8071 4.94055 15.0723 4.23305 13.2571 4.18059C11.442 4.12812 9.66917 4.73424 8.26608 5.887C6.86299 7.03976 5.92442 8.66129 5.6237 10.4521C5.32299 12.243 5.68044 14.0821 6.63005 15.6299C6.69704 15.7445 6.71675 15.8806 6.68501 16.0094C6.65327 16.1383 6.57257 16.2496 6.46005 16.3199C6.40367 16.3544 6.34102 16.3774 6.27572 16.3875C6.21042 16.3976 6.14376 16.3947 6.07959 16.3789C6.01543 16.3631 5.95504 16.3347 5.90191 16.2954C5.84877 16.2561 5.80396 16.2067 5.77005 16.1499C4.67265 14.3926 4.25488 12.295 4.59525 10.2513C4.93561 8.20763 6.01068 6.35862 7.61839 5.05182C9.22611 3.74502 11.2558 3.0704 13.3259 3.15476C15.396 3.23912 17.364 4.07666 18.8601 5.50995C20.0154 6.5808 20.8504 7.95164 21.2719 9.46948C21.6935 10.9873 21.6849 12.5924 21.2472 14.1057C20.8095 15.619 19.9599 16.9808 18.7932 18.0393C17.6265 19.0978 16.1886 19.8112 14.6401 20.0999C14.1256 20.1957 13.6033 20.2426 13.0801 20.2399Z" fill="#414042"/>
<path d="M5.32009 20.7599C5.12624 20.7563 4.93628 20.7049 4.76701 20.6104C4.59773 20.5158 4.45436 20.381 4.34957 20.2179C4.24477 20.0548 4.18179 19.8684 4.16618 19.6751C4.15058 19.4819 4.18283 19.2877 4.26009 19.1099L5.78009 15.6899C5.83667 15.5687 5.9386 15.4746 6.06393 15.4278C6.18925 15.381 6.32793 15.3854 6.45009 15.4399C6.57059 15.4945 6.66455 15.5946 6.71141 15.7183C6.75827 15.842 6.75419 15.9792 6.70009 16.0999L5.17009 19.5199C5.15061 19.5459 5.14009 19.5775 5.14009 19.6099C5.14009 19.6424 5.15061 19.674 5.17009 19.6999C5.19193 19.7249 5.22062 19.743 5.2526 19.7519C5.28459 19.7607 5.31848 19.7601 5.35009 19.7499L9.20008 18.3799C9.2617 18.3562 9.32746 18.3452 9.39343 18.3475C9.45941 18.3499 9.52423 18.3655 9.584 18.3936C9.64377 18.4216 9.69727 18.4614 9.74127 18.5106C9.78528 18.5598 9.81889 18.6174 9.84008 18.6799C9.88512 18.8046 9.87881 18.942 9.82256 19.062C9.7663 19.182 9.6647 19.2748 9.54008 19.3199L5.72009 20.6899C5.59213 20.7374 5.45657 20.7611 5.32009 20.7599Z" fill="#414042"/>
</svg>
