<svg width="32" height="32" viewBox="0 0 32 32" fill="none" xmlns="http://www.w3.org/2000/svg">
<path d="M30.3333 16.7733C30.3364 16.9181 30.2893 17.0594 30.2 17.1733L23.3733 26.3067C23.3112 26.3904 23.231 26.4591 23.1387 26.5076C23.0463 26.5561 22.9442 26.5831 22.84 26.5867H9.17335C9.06684 26.5851 8.96212 26.5591 8.86732 26.5105C8.77251 26.4619 8.69017 26.3922 8.62668 26.3067L1.80001 17.1733C1.71547 17.0571 1.66992 16.9171 1.66992 16.7733C1.66992 16.6296 1.71547 16.4896 1.80001 16.3733L8.62668 7.24C8.69085 7.15617 8.77365 7.08842 8.86854 7.04214C8.96342 6.99585 9.06778 6.9723 9.17335 6.97334H22.84C22.9433 6.97434 23.0451 6.99889 23.1375 7.04509C23.2299 7.0913 23.3106 7.15796 23.3733 7.24L30.2 16.3733C30.2874 16.4883 30.3343 16.6289 30.3333 16.7733ZM22.5067 25.2533L28.84 16.7733L22.5067 8.30667H9.50668L3.16001 16.7733L9.50668 25.2533H22.5067Z" fill="#414042"/>
<path d="M22.7733 16.7733C22.7764 16.9181 22.7292 17.0594 22.6399 17.1733L19.5866 21.2667C19.5238 21.3487 19.4431 21.4154 19.3507 21.4616C19.2583 21.5078 19.1566 21.5323 19.0533 21.5333H12.9466C12.8433 21.5323 12.7416 21.5078 12.6491 21.4616C12.5567 21.4154 12.4761 21.3487 12.4133 21.2667L9.33327 17.1733C9.24239 17.0598 9.19287 16.9187 9.19287 16.7733C9.19287 16.6279 9.24239 16.4868 9.33327 16.3733L12.3866 12.2933C12.4472 12.2089 12.5274 12.1405 12.6203 12.0941C12.7132 12.0476 12.8161 12.0245 12.9199 12.0267H19.0266C19.1305 12.0245 19.2333 12.0476 19.3262 12.0941C19.4191 12.1405 19.4994 12.2089 19.5599 12.2933L22.6666 16.3733C22.7446 16.4916 22.782 16.632 22.7733 16.7733ZM18.6666 20.2L21.3333 16.7733L18.6666 13.3333H13.3333L10.6666 16.7733L13.3333 20.2H18.6666Z" fill="#414042"/>
</svg>
