<svg width="24" height="24" viewBox="0 0 24 24" fill="none" xmlns="http://www.w3.org/2000/svg">
<path d="M9.14997 11H4.14997C3.70613 11 3.28033 10.8244 2.96555 10.5115C2.65078 10.1986 2.47261 9.77385 2.46997 9.33002V4.33002C2.47259 3.88527 2.65044 3.45948 2.96493 3.14498C3.27942 2.83049 3.70522 2.65265 4.14997 2.65002H9.14997C9.59472 2.65265 10.0205 2.83049 10.335 3.14498C10.6495 3.45948 10.8273 3.88527 10.83 4.33002V9.33002C10.8273 9.77385 10.6492 10.1986 10.3344 10.5115C10.0196 10.8244 9.59381 11 9.14997 11ZM4.14997 3.64002C3.97043 3.64261 3.79896 3.71508 3.672 3.84205C3.54503 3.96902 3.47255 4.14048 3.46997 4.32002V9.32002C3.46997 9.50037 3.54161 9.67333 3.66914 9.80086C3.79666 9.92838 3.96962 10 4.14997 10H9.14997C9.33032 10 9.50328 9.92838 9.6308 9.80086C9.75833 9.67333 9.82997 9.50037 9.82997 9.32002V4.32002C9.82739 4.14048 9.75491 3.96902 9.62795 3.84205C9.50098 3.71508 9.32951 3.64261 9.14997 3.64002H4.14997Z" fill="#414042"/>
<path d="M19.8502 11H14.8502C14.4046 11 13.9773 10.823 13.6622 10.508C13.3472 10.1929 13.1702 9.76557 13.1702 9.32001V4.32001C13.1728 3.87526 13.3506 3.44947 13.6651 3.13497C13.9796 2.82048 14.4054 2.64264 14.8502 2.64001H19.8502C20.2949 2.64264 20.7207 2.82048 21.0352 3.13497C21.3497 3.44947 21.5275 3.87526 21.5302 4.32001V9.32001C21.5302 9.76557 21.3532 10.1929 21.0381 10.508C20.723 10.823 20.2957 11 19.8502 11ZM14.8502 3.64001C14.6706 3.6426 14.4992 3.71507 14.3722 3.84204C14.2452 3.96901 14.1727 4.14047 14.1702 4.32001V9.32001C14.1702 9.50036 14.2418 9.67332 14.3693 9.80084C14.4969 9.92837 14.6698 10 14.8502 10H19.8502C20.0305 10 20.2035 9.92837 20.331 9.80084C20.4585 9.67332 20.5302 9.50036 20.5302 9.32001V4.32001C20.5276 4.14047 20.4551 3.96901 20.3281 3.84204C20.2012 3.71507 20.0297 3.6426 19.8502 3.64001H14.8502Z" fill="#414042"/>
<path d="M9.14997 21.35H4.14997C3.70522 21.3474 3.27942 21.1695 2.96493 20.855C2.65044 20.5405 2.47259 20.1148 2.46997 19.67V14.67C2.47261 14.2262 2.65078 13.8014 2.96555 13.4885C3.28033 13.1756 3.70613 13 4.14997 13H9.14997C9.59553 13 10.0228 13.177 10.3379 13.4921C10.653 13.8071 10.83 14.2344 10.83 14.68V19.68C10.8247 20.123 10.6457 20.5463 10.3315 20.8586C10.0173 21.1709 9.59301 21.3474 9.14997 21.35ZM4.14997 14C3.96962 14 3.79666 14.0716 3.66914 14.1992C3.54161 14.3267 3.46997 14.4997 3.46997 14.68V19.68C3.47255 19.8595 3.54503 20.031 3.672 20.158C3.79896 20.2849 3.97043 20.3574 4.14997 20.36H9.14997C9.32951 20.3574 9.50098 20.2849 9.62795 20.158C9.75491 20.031 9.82739 19.8595 9.82997 19.68V14.68C9.82997 14.4997 9.75833 14.3267 9.6308 14.1992C9.50328 14.0716 9.33032 14 9.14997 14H4.14997Z" fill="#414042"/>
<path d="M19.8502 21.35H14.8502C14.4054 21.3474 13.9796 21.1695 13.6651 20.855C13.3506 20.5405 13.1728 20.1148 13.1702 19.67V14.67C13.1728 14.2262 13.351 13.8014 13.6657 13.4885C13.9805 13.1756 14.4063 13 14.8502 13H19.8502C20.2957 13 20.723 13.177 21.0381 13.4921C21.3532 13.8071 21.5302 14.2344 21.5302 14.68V19.68C21.5249 20.123 21.3459 20.5463 21.0317 20.8586C20.7175 21.1709 20.2932 21.3474 19.8502 21.35ZM14.8502 13.99C14.6698 13.99 14.4969 14.0616 14.3693 14.1892C14.2418 14.3167 14.1702 14.4897 14.1702 14.67V19.67C14.1727 19.8495 14.2452 20.021 14.3722 20.148C14.4992 20.2749 14.6706 20.3474 14.8502 20.35H19.8502C20.0297 20.3474 20.2012 20.2749 20.3281 20.148C20.4551 20.021 20.5276 19.8495 20.5302 19.67V14.67C20.5302 14.4897 20.4585 14.3167 20.331 14.1892C20.2035 14.0616 20.0305 13.99 19.8502 13.99H14.8502Z" fill="#414042"/>
</svg>
