<svg width="24" height="24" viewBox="0 0 24 24" fill="none" xmlns="http://www.w3.org/2000/svg">
<path d="M11.9999 18.21C11.868 18.2081 11.7422 18.1542 11.6499 18.06L5.9499 12.36C5.90304 12.3135 5.86584 12.2582 5.84046 12.1973C5.81507 12.1364 5.802 12.071 5.802 12.005C5.802 11.939 5.81507 11.8737 5.84046 11.8127C5.86584 11.7518 5.90304 11.6965 5.9499 11.65L14.3399 3.15003C14.3818 3.09858 14.4355 3.05806 14.4964 3.03193C14.5574 3.0058 14.6238 2.99486 14.6899 3.00003H20.4399C20.5717 3.00259 20.6974 3.05609 20.7906 3.14931C20.8838 3.24253 20.9373 3.36822 20.9399 3.50003L20.9999 9.19003C21.0015 9.25719 20.9889 9.32393 20.9631 9.38595C20.9373 9.44796 20.8987 9.50386 20.8499 9.55003L12.3499 18.06C12.257 18.1533 12.1316 18.2071 11.9999 18.21ZM6.9999 12L11.9999 17L19.9999 9.00003L19.9399 4.00003H14.9399L6.9999 12Z" fill="#414042"/>
<path d="M14.7901 21C14.66 20.9988 14.5351 20.9488 14.4401 20.86L3.1501 9.57001C3.10323 9.52353 3.06603 9.46823 3.04065 9.4073C3.01527 9.34637 3.0022 9.28102 3.0022 9.21501C3.0022 9.14901 3.01527 9.08366 3.04065 9.02273C3.06603 8.9618 3.10323 8.9065 3.1501 8.86001C3.19499 8.81218 3.2492 8.77406 3.3094 8.748C3.3696 8.72194 3.4345 8.7085 3.5001 8.7085C3.56569 8.7085 3.63059 8.72194 3.69079 8.748C3.75099 8.77406 3.80521 8.81218 3.8501 8.86001L15.1501 20.15C15.2423 20.2452 15.2939 20.3725 15.2939 20.505C15.2939 20.6375 15.2423 20.7649 15.1501 20.86C15.0515 20.9495 14.9233 20.9993 14.7901 21Z" fill="#414042"/>
<path d="M7 20.94C6.86487 20.9396 6.73539 20.8857 6.64 20.79L3.17 17.37C3.11777 17.3233 3.07572 17.2663 3.04647 17.2027C3.01722 17.139 3.0014 17.07 3 17C3 16.73 3 16.69 7 12.76C7.04648 12.7131 7.10178 12.6759 7.16271 12.6505C7.22364 12.6251 7.28899 12.6121 7.355 12.6121C7.42101 12.6121 7.48636 12.6251 7.54729 12.6505C7.60822 12.6759 7.66352 12.7131 7.71 12.76C7.80225 12.8551 7.85384 12.9824 7.85384 13.115C7.85384 13.2475 7.80225 13.3748 7.71 13.47C6.63 14.59 4.9 16.3 4.22 17L7 19.73L10.53 16.19C10.6242 16.0958 10.7518 16.0429 10.885 16.0429C11.0182 16.0429 11.1458 16.0958 11.24 16.19C11.3342 16.2841 11.387 16.4118 11.387 16.545C11.387 16.6781 11.3342 16.8058 11.24 16.9L7.3 20.79C7.22025 20.873 7.11429 20.926 7 20.94Z" fill="#414042"/>
<path d="M12.0001 12.5C11.9345 12.5008 11.8695 12.4878 11.8092 12.462C11.7489 12.4362 11.6947 12.398 11.6501 12.35C11.6022 12.3051 11.5641 12.2509 11.538 12.1907C11.512 12.1305 11.4985 12.0656 11.4985 12C11.4985 11.9344 11.512 11.8695 11.538 11.8093C11.5641 11.7491 11.6022 11.6949 11.6501 11.65L15.6501 7.64998C15.696 7.60402 15.7506 7.56756 15.8106 7.54268C15.8707 7.51781 15.9351 7.505 16.0001 7.505C16.0651 7.505 16.1294 7.51781 16.1895 7.54268C16.2495 7.56756 16.3041 7.60402 16.3501 7.64998C16.396 7.69594 16.4325 7.75051 16.4573 7.81056C16.4822 7.87061 16.495 7.93498 16.495 7.99998C16.495 8.06498 16.4822 8.12934 16.4573 8.1894C16.4325 8.24945 16.396 8.30402 16.3501 8.34998L12.3501 12.35C12.3054 12.398 12.2512 12.4362 12.1909 12.462C12.1306 12.4878 12.0656 12.5008 12.0001 12.5Z" fill="#414042"/>
</svg>
