<svg width="24" height="24" viewBox="0 0 24 24" fill="none" xmlns="http://www.w3.org/2000/svg">
<path d="M17.5 21H6.5C5.57174 21 4.6815 20.6313 4.02513 19.9749C3.36875 19.3185 3 18.4283 3 17.5V6.5C3 5.57174 3.36875 4.6815 4.02513 4.02513C4.6815 3.36875 5.57174 3 6.5 3H17.5C18.4283 3 19.3185 3.36875 19.9749 4.02513C20.6313 4.6815 21 5.57174 21 6.5V17.5C21 18.4283 20.6313 19.3185 19.9749 19.9749C19.3185 20.6313 18.4283 21 17.5 21ZM6.5 4C5.83696 4 5.20107 4.26339 4.73223 4.73223C4.26339 5.20107 4 5.83696 4 6.5V17.5C4 18.163 4.26339 18.7989 4.73223 19.2678C5.20107 19.7366 5.83696 20 6.5 20H17.5C18.163 20 18.7989 19.7366 19.2678 19.2678C19.7366 18.7989 20 18.163 20 17.5V6.5C20 5.83696 19.7366 5.20107 19.2678 4.73223C18.7989 4.26339 18.163 4 17.5 4H6.5Z" fill="#414042"/>
<path d="M3.50012 16.8099C3.42728 16.8107 3.3552 16.7949 3.28936 16.7638C3.22353 16.7326 3.16565 16.6868 3.12012 16.6299C3.07724 16.5804 3.04471 16.5228 3.02447 16.4605C3.00423 16.3982 2.99668 16.3325 3.00228 16.2673C3.00787 16.202 3.02649 16.1385 3.05704 16.0806C3.08759 16.0227 3.12944 15.9714 3.18012 15.9299L7.88012 11.9999C8.59292 11.4088 9.51092 11.1243 10.4331 11.2087C11.3552 11.293 12.2064 11.7393 12.8001 12.4499L13.9201 13.7899C14.1327 14.0461 14.3946 14.2571 14.6902 14.4103C14.9857 14.5636 15.3091 14.656 15.641 14.6821C15.9729 14.7082 16.3067 14.6675 16.6226 14.5623C16.9385 14.4572 17.2301 14.2897 17.4801 14.0699L20.1701 11.7199C20.2716 11.6341 20.4027 11.5913 20.5353 11.6006C20.6679 11.6099 20.7916 11.6707 20.8801 11.7699C20.9236 11.8188 20.9568 11.8759 20.9779 11.9378C20.9989 11.9997 21.0074 12.0652 21.0027 12.1305C20.9981 12.1957 20.9804 12.2594 20.9508 12.3177C20.9211 12.376 20.8801 12.4277 20.8301 12.4699L18.1401 14.8199C17.7896 15.1298 17.3803 15.366 16.9366 15.5145C16.4929 15.663 16.0239 15.7207 15.5575 15.6844C15.091 15.648 14.6367 15.5182 14.2214 15.3027C13.8061 15.0872 13.4384 14.7904 13.1401 14.4299L12.0001 13.1199C11.7908 12.8682 11.534 12.6602 11.2442 12.5079C10.9545 12.3555 10.6375 12.2618 10.3115 12.2321C9.98547 12.2023 9.65679 12.2372 9.34426 12.3346C9.03173 12.4321 8.74148 12.5902 8.49012 12.7999L3.79012 16.6999C3.70629 16.7642 3.60547 16.8024 3.50012 16.8099Z" fill="#414042"/>
</svg>
