<svg width="60" height="60" viewBox="0 0 60 60" fill="none" xmlns="http://www.w3.org/2000/svg">
<path d="M21.3666 57.8251C24.1666 58.6709 26.9958 59.1667 29.9999 59.1667C37.7354 59.1667 45.1541 56.0938 50.6239 50.624C56.0937 45.1542 59.1666 37.7355 59.1666 30C59.1666 26.1698 58.4122 22.3771 56.9464 18.8384C55.4807 15.2998 53.3322 12.0845 50.6239 9.37609C47.9155 6.66772 44.7002 4.51932 41.1615 3.05355C37.6229 1.58779 33.8301 0.833374 29.9999 0.833374C26.1697 0.833374 22.377 1.58779 18.8383 3.05355C15.2997 4.51932 12.0843 6.66772 9.37597 9.37609C3.90616 14.8459 0.833252 22.2646 0.833252 30C0.833252 42.3959 8.62075 53.0417 19.6166 57.2417C19.3541 54.9667 19.0916 51.2042 19.6166 48.6084L22.9708 34.2C22.9708 34.2 22.1249 32.5084 22.1249 29.825C22.1249 25.8 24.6333 22.7959 27.4916 22.7959C29.9999 22.7959 31.1666 24.6334 31.1666 26.9959C31.1666 29.5042 29.5041 33.0917 28.6583 36.5334C28.1624 39.3917 30.1749 41.9 33.0916 41.9C38.2833 41.9 42.3083 36.3584 42.3083 28.5417C42.3083 21.5417 37.2916 16.7584 30.0874 16.7584C21.8624 16.7584 17.0208 22.8834 17.0208 29.3292C17.0208 31.8375 17.8374 34.375 19.1791 36.0375C19.4416 36.2125 19.4416 36.4459 19.3541 36.8834L18.5083 40.0625C18.5083 40.5584 18.1874 40.7334 17.6916 40.3834C13.9583 38.75 11.7999 33.4417 11.7999 29.1542C11.7999 19.9375 18.3333 11.5667 30.9333 11.5667C40.9666 11.5667 48.7833 18.7709 48.7833 28.3375C48.7833 38.3709 42.5708 46.4209 33.6749 46.4209C30.8458 46.4209 28.0749 44.9042 27.0833 43.125L25.1291 50.0375C24.4583 52.5459 22.6208 55.9 21.3666 57.9125V57.8251Z" fill="#CCCCCC"/>
</svg>
